<svg width="362" height="101" viewBox="0 0 362 101" fill="none" xmlns="http://www.w3.org/2000/svg">
<path d="M44.9844 12.1406V15.6562L11.1172 64.4844H44.2031V68H5.92188V64.875L40.8438 15.6562H6.70312V12.1406H44.9844ZM61.7812 12.1406V16.8281H56.8984V12.1406H61.7812ZM61.3906 26.9844V68H57.2891V26.9844H61.3906ZM74.7109 68V26.9844H77.6406L78.0703 32.1406C82.263 28.7031 86.8073 26.9844 91.7031 26.9844C98.1615 26.9844 102.341 28.8594 104.242 32.6094C108.956 28.8594 113.734 26.9844 118.578 26.9844C127.745 26.9844 132.328 31.5286 132.328 40.6172V68H128.227V40.6172C128.227 33.9766 124.997 30.6562 118.539 30.6562C113.383 30.6562 109.125 32.4271 105.766 35.9688V68H101.664V39.9531C101.664 33.7552 98.3307 30.6562 91.6641 30.6562C86.8203 30.6562 82.5365 32.4271 78.8125 35.9688V68H74.7109ZM142.523 56.3984C142.523 48.2474 147.94 44.1719 158.773 44.1719C162.602 44.1719 166.69 44.4323 171.039 44.9531V39.9141C171.039 33.638 167.094 30.5 159.203 30.5C154.984 30.5 150.661 31.151 146.234 32.4531V28.9375C150.661 27.6354 154.984 26.9844 159.203 26.9844C169.828 26.9844 175.141 31.2292 175.141 39.7188V68H172.641L171.703 63.9375C166.573 66.6458 161.599 68 156.781 68C147.276 68 142.523 64.1328 142.523 56.3984ZM158.773 47.6875C150.674 47.6875 146.625 50.5521 146.625 56.2812C146.625 61.75 150.01 64.4844 156.781 64.4844C161.781 64.4844 166.534 63.1562 171.039 60.5V48.4688C166.69 47.9479 162.602 47.6875 158.773 47.6875ZM207.211 68V12.1406H231.039C241.664 12.1406 246.977 16.4766 246.977 25.1484C246.977 31.5026 243.122 36.0469 235.414 38.7812C243.591 40.1615 247.68 44.5234 247.68 51.8672C247.68 62.6224 241.859 68 230.219 68H207.211ZM229.789 64.4844C238.799 64.4844 243.305 60.3177 243.305 51.9844C243.305 44.6146 237.667 40.9297 226.391 40.9297H223.266V38.1562C236.286 36.9844 242.797 32.7396 242.797 25.4219C242.797 18.9115 238.786 15.6562 230.766 15.6562H211.312V64.4844H229.789ZM264.047 12.1406V68H259.945V12.1406H264.047ZM311.156 26.9844V68H308.148L307.68 62.7656C302.966 66.2552 297.706 68 291.898 68C282.211 68 277.367 62.9089 277.367 52.7266V26.9844H281.469V52.8438C281.469 60.5 285.01 64.3281 292.094 64.3281C297.276 64.3281 302.263 62.5964 307.055 59.1328V26.9844H311.156ZM340.219 26.9844C351.443 26.9844 357.055 33.1953 357.055 45.6172C357.055 46.5026 357.029 47.4271 356.977 48.3906H325.844C325.844 59.1198 331.521 64.4844 342.875 64.4844C347.536 64.4844 351.677 63.8333 355.297 62.5312V66.0469C351.677 67.349 347.536 68 342.875 68C328.786 68 321.742 61.0078 321.742 47.0234C321.742 33.6641 327.901 26.9844 340.219 26.9844ZM325.844 44.7188H353.109C352.953 35.1875 348.656 30.4219 340.219 30.4219C331.104 30.4219 326.312 35.1875 325.844 44.7188Z" fill="#F7F8F2"/>
<path d="M247.582 96.1211C251.456 96.1211 253.393 93.9596 253.393 89.6367C253.393 85.8216 251.456 83.9141 247.582 83.9141H243.725V96.1211H247.582ZM242.699 97V83.0352H247.68C252.237 83.0352 254.516 85.2357 254.516 89.6367C254.516 94.5456 252.204 97 247.582 97H242.699ZM258.373 83.0352V84.207H257.152V83.0352H258.373ZM258.275 86.7461V97H257.25V86.7461H258.275ZM269.047 87.8984C268.103 87.7422 267.175 87.6641 266.264 87.6641C263.497 87.6641 262.113 89.041 262.113 91.7949C262.113 94.6139 263.406 96.0234 265.99 96.0234C266.928 96.0234 267.947 95.8477 269.047 95.4961V87.8984ZM270.072 97C270.072 99.474 268.565 100.711 265.551 100.711C264.288 100.711 263.168 100.548 262.191 100.223V99.3438C263.188 99.6693 264.314 99.832 265.57 99.832C267.888 99.832 269.047 98.888 269.047 97V96.5117C267.888 96.8372 266.866 97 265.98 97C262.738 97 261.117 95.2715 261.117 91.8145C261.117 88.4355 262.859 86.7461 266.342 86.7461C267.663 86.7461 268.907 86.8861 270.072 87.166V97ZM274.525 83.0352V84.207H273.305V83.0352H274.525ZM274.428 86.7461V97H273.402V86.7461H274.428ZM277.719 85.0859H278.441L278.627 86.7461H281.703V87.625H278.715V94.0996C278.715 95.4473 279.21 96.1211 280.199 96.1211H281.703V97H280.219C278.552 97 277.719 96.0788 277.719 94.2363V85.0859ZM283.305 94.0996C283.305 92.0618 284.659 91.043 287.367 91.043C288.324 91.043 289.346 91.1081 290.434 91.2383V89.9785C290.434 88.4095 289.447 87.625 287.475 87.625C286.355 87.625 285.242 87.7878 284.135 88.1133V87.2344C285.242 86.9089 286.355 86.7461 287.475 86.7461C290.131 86.7461 291.459 87.8073 291.459 89.9297V97H290.834L290.6 95.9844C289.317 96.6615 288.074 97 286.869 97C284.493 97 283.305 96.0332 283.305 94.0996ZM287.367 91.9219C285.342 91.9219 284.33 92.638 284.33 94.0703C284.33 95.4375 285.176 96.1211 286.869 96.1211C288.119 96.1211 289.307 95.7891 290.434 95.125V92.1172C289.346 91.987 288.324 91.9219 287.367 91.9219ZM295.814 83.0352V97H294.789V83.0352H295.814ZM303.93 96.5117V95.4375C305.395 95.9583 307.009 96.2188 308.773 96.2188C311.697 96.2188 313.158 95.112 313.158 92.8984C313.158 91.2708 312.208 90.457 310.307 90.457H307.436C304.838 90.457 303.539 89.2852 303.539 86.9414C303.539 84.2721 305.443 82.9375 309.252 82.9375C310.814 82.9375 312.328 83.1328 313.793 83.5234V84.5C312.328 84.0443 310.814 83.8164 309.252 83.8164C306.127 83.8164 304.564 84.8581 304.564 86.9414C304.564 88.6341 305.521 89.4805 307.436 89.4805H310.307C312.891 89.4805 314.184 90.6198 314.184 92.8984C314.184 95.6979 312.38 97.0977 308.773 97.0977C307.009 97.0977 305.395 96.9023 303.93 96.5117ZM316.781 85.0859H317.504L317.689 86.7461H320.766V87.625H317.777V94.0996C317.777 95.4473 318.272 96.1211 319.262 96.1211H320.766V97H319.281C317.615 97 316.781 96.0788 316.781 94.2363V85.0859ZM331.4 86.7461V97H330.648L330.531 95.6914C329.353 96.5638 328.038 97 326.586 97C324.164 97 322.953 95.7272 322.953 93.1816V86.7461H323.979V93.2109C323.979 95.125 324.864 96.082 326.635 96.082C327.93 96.082 329.177 95.6491 330.375 94.7832V86.7461H331.4ZM342.006 88.1523C341.016 87.8008 339.988 87.625 338.92 87.625C336.4 87.625 335.141 88.9499 335.141 91.5996C335.141 94.5879 336.4 96.082 338.92 96.082C339.988 96.082 341.016 95.9551 342.006 95.7012V88.1523ZM343.031 96.3848C341.918 96.7949 340.515 97 338.822 97C335.639 97 334.047 95.2227 334.047 91.668C334.047 88.3867 335.668 86.7461 338.91 86.7461C339.926 86.7461 340.958 86.9089 342.006 87.2344V83.0352H343.031V96.3848ZM347.475 83.0352V84.207H346.254V83.0352H347.475ZM347.377 86.7461V97H346.352V86.7461H347.377ZM351.244 91.834C351.244 94.7572 352.497 96.2188 355.004 96.2188C357.51 96.2188 358.764 94.7572 358.764 91.834C358.764 88.9629 357.51 87.5273 355.004 87.5273C352.497 87.5273 351.244 88.9629 351.244 91.834ZM350.219 91.873C350.219 88.39 351.814 86.6484 355.004 86.6484C358.194 86.6484 359.789 88.39 359.789 91.873C359.789 95.3496 358.194 97.0879 355.004 97.0879C351.827 97.0879 350.232 95.3496 350.219 91.873Z" fill="#F7F8F2"/>
</svg>
